<!DOCTYPE svg PUBLIC "-//W3C//DTD SVG 1.1//EN" "http://www.w3.org/Graphics/SVG/1.1/DTD/svg11.dtd">
<!-- Uploaded to: SVG Repo, www.svgrepo.com, Transformed by: SVG Repo Mixer Tools -->
<svg height="800px" width="800px" version="1.1" id="_x36_" xmlns="http://www.w3.org/2000/svg" xmlns:xlink="http://www.w3.org/1999/xlink" viewBox="0 0 512 512" xml:space="preserve" fill="#000000" transform="matrix(-1, 0, 0, 1, 0, 0)">
<g id="SVGRepo_bgCarrier" stroke-width="0"/>
<g id="SVGRepo_tracerCarrier" stroke-linecap="round" stroke-linejoin="round"/>
<g id="SVGRepo_iconCarrier"> <g> <path style="fill:#FFFFFF;" d="M255.13,477.751c0-2.179-0.389-4.28-1.089-6.069c-0.155-0.467-0.389-0.856-0.544-1.245 c-0.156-0.312-0.312-0.545-0.467-0.856c-0.234-0.389-0.545-0.778-0.856-1.167c-0.155-0.156-0.311-0.389-0.467-0.545 c-0.311-0.467-0.622-0.778-1.012-1.089c-0.155-0.156-0.311-0.311-0.545-0.389c-0.467-0.389-0.934-0.701-1.478-0.934l-6.458-70.494 l-1.012-11.048v-0.156c0.623-0.622,1.167-1.4,1.556-2.179c0.155-0.155,0.233-0.311,0.311-0.467 c0.078-0.078,0.078-0.078,0.156-0.155c0.233-0.389,0.467-0.778,0.622-1.245c0.078,0,0.078-0.078,0.078-0.078 c0.234-0.389,0.389-0.856,0.545-1.245c0-0.078,0.078-0.156,0.078-0.156c0.233-0.545,0.389-1.089,0.545-1.634 c0.078-0.156,0.078-0.389,0.156-0.623c0.077-0.156,0.077-0.311,0.155-0.545c0-0.156,0.078-0.311,0.078-0.467 c0.234-1.089,0.311-2.256,0.311-3.424c0-8.092-5.213-15.017-12.449-17.662c-0.389-0.155-0.778-0.233-1.167-0.389 c-0.389-0.078-0.778-0.156-1.167-0.311v-0.078c-0.312-0.934-0.623-1.867-0.934-2.957c-0.156-0.623-0.311-1.245-0.545-1.867 c0-0.078,0-0.234-0.078-0.312c-0.467-1.789-0.934-3.657-1.478-5.68c-0.233-0.934-0.467-2.023-0.778-3.112 c-0.389-1.556-0.778-3.268-1.167-5.058c-0.389-1.79-0.856-3.657-1.245-5.525c-0.312-1.245-0.545-2.567-0.856-3.813 c-0.467-2.412-1.012-4.824-1.478-7.314c-1.945-9.103-3.812-18.829-5.602-28.555c-0.156-0.623-0.234-1.167-0.389-1.789 c-0.234-1.478-0.467-2.879-0.778-4.357c-0.233-1.478-0.545-2.957-0.778-4.435c-0.234-1.4-0.467-2.801-0.778-4.124 c-0.234-1.401-0.467-2.801-0.701-4.201h-0.078c-0.156-1.089-0.389-2.179-0.545-3.19c-0.622-3.501-1.167-6.924-1.789-10.271 c-0.234-1.478-0.467-2.879-0.701-4.357c-0.233-1.323-0.467-2.723-0.7-3.968c-0.078-0.312-0.156-0.701-0.156-1.089 c-0.233-1.478-0.467-2.879-0.7-4.202c-0.156-0.7-0.234-1.4-0.389-2.023c0-0.156-0.077-0.312-0.077-0.467 c-0.389-2.335-0.778-4.513-1.089-6.536c-1.012-6.302-1.79-11.126-2.179-13.616c1.478-1.945,2.412-4.435,2.412-7.08 c0-4.902-3.112-9.182-7.547-10.815c-1.012-4.435-2.101-10.193-3.035-16.651c-0.467-2.801-0.856-5.758-1.167-8.792 c0.078-0.078,0.234-0.156,0.311-0.311c1.712-1.478,2.801-3.501,2.801-5.835c0-2.957-1.712-5.447-4.046-6.847 c-0.155-0.078-0.389-0.234-0.545-0.311c0.156,0.077,0.389,0.155,0.545,0.233c-0.077-1.245-0.077-2.49-0.077-3.735 c0-33.38,17.662-49.797,28.71-63.88c3.501-4.357,6.303-8.559,7.781-12.994h-20.852l-15.717-15.639L177.634,84.59l10.582-10.737 c-0.312-1.4-0.7-2.879-1.167-4.279c-0.389-1.4-0.856-2.801-1.4-4.124c-0.311-0.856-0.623-1.634-1.089-2.412 c0-0.155-0.078-0.311-0.233-0.389c-0.234-0.623-0.623-1.323-0.934-1.945c-0.234-0.545-0.467-1.012-0.701-1.556 c-0.778-1.634-1.634-3.112-2.645-4.59c-0.623-1.011-1.323-2.023-2.023-2.957c-0.545-0.934-1.245-1.789-1.945-2.646 c-0.078-0.155-0.156-0.233-0.311-0.311c-1.245-1.556-2.567-3.035-3.968-4.435c-0.078-0.156-0.234-0.311-0.311-0.389 c-1.556-1.478-3.112-2.957-4.824-4.279c-0.467-0.389-1.011-0.778-1.478-1.167c-1.556-1.167-3.112-2.256-4.668-3.19 c-0.856-0.545-1.712-1.012-2.568-1.478c0-0.078,0-0.078-0.078-0.078c-2.023-1.089-4.046-2.101-6.147-2.957 c-0.545-0.234-1.089-0.467-1.634-0.701c-0.934-0.389-1.945-0.7-2.879-1.011c-0.389-0.155-0.856-0.311-1.245-0.389 c-0.701-0.233-1.323-0.389-2.023-0.545c-0.701-0.233-1.478-0.467-2.179-0.622c0.078-0.078,0.078-0.078,0.078-0.156 c1.867-2.646,3.035-5.913,3.112-9.415v-0.467c0-8.792-6.458-15.95-14.861-17.117V0.013c-0.467,0-0.856,0.078-1.245,0.078 c-0.389,0-0.778-0.078-1.245-0.078v0.234c-0.077,0-0.077,0-0.155,0.077c-8.325,1.167-14.706,8.325-14.706,17.04 c0,3.657,1.167,7.081,3.113,9.882c0,0.078,0.077,0.078,0.155,0.156c-0.389,0.078-0.7,0.155-1.089,0.311 c-1.09,0.234-2.101,0.545-3.19,0.856c-7.003,2.101-13.538,5.524-19.218,9.804c-2.257,1.712-4.357,3.501-6.302,5.447 c-3.035,3.112-5.836,6.458-8.248,10.115c-3.113,4.746-5.602,10.037-7.314,15.639c-0.467,1.401-0.856,2.879-1.167,4.279 L80.064,84.59L63.102,67.628L47.384,83.267H26.532c6.069,18.44,36.492,33.068,36.492,76.874c0,1.245,0,2.49-0.078,3.735 c0.156-0.078,0.389-0.233,0.545-0.233c-0.155,0.077-0.389,0.233-0.545,0.311c-2.334,1.4-4.046,3.89-4.046,6.847 c0,2.334,1.089,4.357,2.801,5.835c0.078,0.155,0.233,0.233,0.311,0.311c-0.311,3.035-0.7,5.991-1.167,8.792 c-0.934,6.458-2.101,12.216-3.035,16.651c-4.435,1.634-7.548,5.913-7.548,10.815c0,2.645,0.934,5.135,2.412,7.08 c-0.389,2.49-1.167,7.314-2.179,13.616c-0.778,4.668-1.712,10.193-2.723,16.339c-0.312,2.023-0.701,4.124-1.089,6.302 c-0.545,3.268-1.167,6.614-1.789,10.115c-0.389,2.334-0.778,4.746-1.245,7.158c-1.712,9.648-3.579,19.685-5.524,29.411 c-0.622,3.19-1.245,6.303-1.867,9.337c-0.311,1.712-0.622,3.424-1.012,5.058c-0.467,2.412-1.011,4.824-1.478,7.158 c-1.712,8.014-3.424,15.25-4.979,21.164c-0.778,2.645-1.401,5.057-2.101,7.158v0.078c-0.389,0.155-0.778,0.233-1.167,0.311 c-0.389,0.078-0.778,0.234-1.167,0.389c-7.236,2.646-12.45,9.571-12.45,17.662c0,1.789,0.234,3.501,0.701,5.058 c0.156,0.544,0.311,1.089,0.545,1.634c0.778,2.023,1.945,3.89,3.346,5.525v0.156l-1.012,11.204l-6.458,70.338 c-0.622,0.233-1.167,0.623-1.634,1.012c-0.156,0.078-0.312,0.155-0.389,0.311c-0.389,0.311-0.778,0.7-1.089,1.089 c-0.467,0.545-0.856,1.089-1.245,1.712c-0.389,0.701-0.7,1.401-1.012,2.101c-0.7,1.789-1.089,3.89-1.089,6.069l-2.335,19.452 L0,499.07c0,7.158,4.124,12.916,9.181,12.916h239.336c5.057,0,9.181-5.758,9.181-12.916L255.13,477.751z M127.604,34.404v0.078 c-0.311-0.078-0.622-0.078-0.934-0.233C126.982,34.326,127.293,34.326,127.604,34.404z M125.892,34.093h-0.078 c-0.233-0.078-0.467-0.156-0.7-0.234C125.348,34.015,125.659,34.015,125.892,34.093z M119.356,82.022l-17.896,23.965l-0.155-0.156 L119.356,82.022z"/> <g> <g> <path style="fill:#E3B967;" d="M130.094,178.892v22.72H61.857c-1.4,0-2.801,0.312-4.046,0.778 c0.934-4.435,2.101-10.193,3.035-16.651c0.467-2.801,0.856-5.758,1.167-8.792c1.401,1.167,3.113,1.945,4.98,1.945H130.094z"/> <path style="fill:#C99557;" d="M188.216,73.852L177.634,84.59l-0.856,0.856l-20.23,20.541l-0.156-0.156l-18.829-24.898 l-8.714-11.516l-8.481,11.126l-0.7,1.011l-0.312,0.467l-18.051,23.809l-0.156,0.156L80.92,85.446l-0.856-0.856L69.482,73.852 c0.311-1.4,0.701-2.879,1.167-4.279c1.712-5.524,4.201-10.815,7.314-15.639c2.412-3.657,5.213-7.002,8.248-10.115 c1.945-1.945,4.046-3.735,6.302-5.447c5.68-4.279,12.215-7.703,19.218-9.804c1.089-0.311,2.101-0.622,3.19-0.856 c0.389-0.156,0.7-0.233,1.089-0.311h0.078c0.623,0.856,1.323,1.712,2.101,2.49c0.078,0.155,0.233,0.233,0.389,0.311 c0.467,0.467,0.934,0.856,1.4,1.167c0.311,0.233,0.623,0.467,0.934,0.622c1.011,0.701,2.179,1.245,3.346,1.634 c0.467,0.233,1.012,0.389,1.556,0.467c0.545,0.233,1.167,0.389,1.789,0.389c0.156,0.078,0.39,0.078,0.623,0.156 c0,0,0.078,0,0.156,0c0.156,0,0.311,0.078,0.467,0.078c0.156,0,0.389,0,0.545-0.078c0,0,0,0,0.078,0 c0.233,0,0.389-0.078,0.622-0.156c0.623,0,1.245-0.156,1.79-0.389c1.789-0.389,3.424-1.089,4.902-2.101 c0.311-0.155,0.622-0.389,0.934-0.622c0.467-0.312,0.934-0.701,1.4-1.167c0.155-0.078,0.311-0.156,0.389-0.311 c0.778-0.778,1.478-1.634,2.101-2.49h0.155c0.7,0.155,1.478,0.389,2.179,0.622c0.7,0.156,1.323,0.312,2.023,0.545 c0.389,0.078,0.856,0.234,1.245,0.389c0.934,0.312,1.945,0.623,2.879,1.011c0.545,0.234,1.089,0.467,1.634,0.701 c2.101,0.856,4.124,1.867,6.147,2.957h0.078v0.078c0.856,0.467,1.712,0.934,2.568,1.478c1.556,0.934,3.112,2.023,4.668,3.19 c0.7,0.545,1.323,1.012,1.945,1.634c1.478,1.167,2.957,2.49,4.357,3.813c0.078,0.078,0.234,0.233,0.311,0.389 c1.4,1.401,2.723,2.879,3.968,4.435c0.156,0.078,0.234,0.156,0.311,0.311c0.7,0.856,1.4,1.712,1.945,2.646 c0.622,0.778,1.167,1.556,1.712,2.334c0.078,0.234,0.234,0.467,0.312,0.623c1.011,1.478,1.867,2.957,2.645,4.59 c0.623,1.089,1.167,2.257,1.634,3.501c0.155,0.078,0.233,0.234,0.233,0.389c0.934,2.101,1.79,4.28,2.49,6.536 C187.516,70.974,187.905,72.452,188.216,73.852z"/> <path style="fill:#E3B967;" d="M199.894,202.373c-1.245-0.467-2.646-0.778-4.046-0.778H127.61v-22.72h63.024 c1.945,0,3.657-0.778,5.057-1.945c0.311,3.035,0.701,5.991,1.167,8.792C197.793,192.18,198.882,197.938,199.894,202.373z"/> <path style="fill:#E3B967;" d="M223.385,96.261c-11.048,14.083-28.71,30.5-28.71,63.88c0,1.245,0,2.49,0.077,3.735 c-0.155-0.078-0.389-0.156-0.545-0.233c-0.233-0.156-0.467-0.234-0.7-0.311c-0.856-0.467-1.867-0.7-2.879-0.7H66.992 c-1.245,0-2.412,0.389-3.501,1.011c-0.155,0-0.389,0.155-0.545,0.233c0.078-1.245,0.078-2.49,0.078-3.735 c0-43.806-30.423-58.434-36.492-76.874h20.852l15.717-15.639L80.92,85.446l20.386,20.385l0.155,0.156l17.896-23.965l0.312-0.467 l0.7-1.011l7.236-9.648v-3.268l1.245,1.634l1.245-1.634v3.268l7.47,10.037l18.674,25.054l0.155-0.156l20.385-20.385l0.856-0.856 l16.962-16.962l15.717,15.639h20.852C229.688,87.702,226.886,91.904,223.385,96.261z"/> <path style="fill:#E3B967;" d="M144.955,17.364v0.467c-0.078,3.501-1.245,6.769-3.112,9.415c0,0.078,0,0.078-0.078,0.156h-0.078 c-0.622,0.934-1.323,1.789-2.178,2.49c-0.078,0.155-0.234,0.233-0.389,0.311c-0.467,0.467-0.934,0.856-1.4,1.167 c-0.312,0.233-0.623,0.467-0.934,0.622c-1.556,0.934-3.19,1.634-4.902,2.101c-0.623,0.078-1.167,0.233-1.79,0.311v0.312 c-0.233,0-0.467-0.078-0.622-0.078c-0.078,0-0.078,0-0.078,0c-0.234-0.078-0.389-0.078-0.545-0.078c-0.156,0-0.311,0-0.467,0.078 c-0.078,0-0.156,0-0.156,0c-0.233,0-0.467,0.078-0.623,0.078v-0.312c-0.311-0.078-0.622-0.078-0.934-0.155 c-0.233-0.078-0.545-0.078-0.778-0.156h-0.078c-0.233-0.078-0.467-0.156-0.7-0.234c-0.311-0.077-0.545-0.155-0.856-0.233 c-0.545-0.234-1.012-0.467-1.556-0.701c-0.545-0.233-1.011-0.467-1.478-0.778c-0.078,0-0.156-0.078-0.312-0.156 c-0.311-0.155-0.623-0.389-0.934-0.622c-0.467-0.312-0.934-0.701-1.4-1.167c-0.156-0.078-0.311-0.156-0.389-0.311 c-0.856-0.7-1.556-1.556-2.179-2.49c-0.078-0.078-0.155-0.078-0.155-0.156c-1.945-2.801-3.113-6.225-3.113-9.882 c0-8.714,6.38-15.873,14.706-17.04c0.078-0.077,0.078-0.077,0.155-0.077V0.013c0.467,0,0.856,0.078,1.245,0.078 c0.389,0,0.778-0.078,1.245-0.078v0.234C138.497,1.414,144.955,8.572,144.955,17.364z"/> <path style="fill:#C99557;" d="M198.798,170.801c0,2.334-1.089,4.357-2.801,5.835c-0.078,0.155-0.234,0.233-0.311,0.311 c-1.4,1.167-3.112,1.945-5.057,1.945H66.992c-1.867,0-3.579-0.778-4.98-1.945c-0.078-0.078-0.233-0.156-0.311-0.311 c-1.712-1.478-2.801-3.501-2.801-5.835c0-2.957,1.712-5.447,4.046-6.847c0.156-0.078,0.389-0.234,0.545-0.311 c1.089-0.623,2.257-1.011,3.501-1.011h123.636c1.012,0,2.023,0.233,2.879,0.7c0.233,0.078,0.467,0.234,0.7,0.311 c0.156,0.077,0.389,0.233,0.545,0.311C197.086,165.354,198.798,167.844,198.798,170.801z"/> <path style="fill:#C99557;" d="M207.434,213.206c0,2.645-0.934,5.135-2.412,7.08c-2.178,2.723-5.447,4.591-9.181,4.591H61.857 c-3.735,0-7.003-1.868-9.181-4.591c-1.478-1.945-2.412-4.435-2.412-7.08c0-4.902,3.112-9.182,7.548-10.815 c1.245-0.467,2.646-0.778,4.046-0.778h133.984c1.4,0,2.801,0.312,4.046,0.778C204.322,204.024,207.434,208.304,207.434,213.206z"/> <path style="fill:#E3B967;" d="M228.598,358.472h-22.331c0.233,0.389,0.389,0.856,0.545,1.245 c-1.478-0.778-3.112-1.245-4.747-1.245H55.632c-1.634,0-3.268,0.467-4.746,1.245c0.156-0.389,0.312-0.856,0.545-1.245H29.1 c-1.634,0-3.268,0.467-4.746,1.245c0.778-1.634,1.556-3.89,2.412-6.613c0.623-2.101,1.323-4.513,2.023-7.158 c1.556-5.913,3.268-13.149,4.979-21.164c0.467-2.334,1.012-4.746,1.478-7.158c0.389-1.634,0.701-3.346,1.012-5.058 c0.623-3.034,1.245-6.147,1.867-9.337c1.945-9.726,3.813-19.763,5.524-29.411c0.467-2.412,0.856-4.824,1.245-7.158 c0.622-3.501,1.245-6.847,1.789-10.115c0.389-2.178,0.778-4.279,1.089-6.302c1.012-6.147,1.945-11.671,2.723-16.339 c1.011-6.302,1.789-11.126,2.179-13.616c2.178,2.723,5.446,4.591,9.181,4.591h133.984c3.735,0,7.003-1.868,9.181-4.591 c0.389,2.49,1.167,7.314,2.179,13.616c0.311,2.023,0.7,4.201,1.089,6.536c0,0.155,0.077,0.311,0.077,0.467 c0.312,1.867,0.623,3.813,0.934,5.758c0.078,0.155,0.078,0.311,0.156,0.467c0,0.389,0.078,0.778,0.156,1.089 c0.078,0.7,0.233,1.4,0.311,2.023c0.312,2.023,0.7,4.124,1.089,6.302c0.623,3.346,1.167,6.77,1.789,10.271 c0.156,1.012,0.389,2.101,0.545,3.19c0.234,1.401,0.467,2.723,0.778,4.201c0.233,1.4,0.544,2.724,0.778,4.124 c0.233,1.478,0.545,2.957,0.778,4.435c0.312,1.478,0.545,2.879,0.778,4.357c0.155,0.622,0.233,1.167,0.389,1.789 c1.79,9.726,3.657,19.452,5.602,28.555c0.467,2.49,0.934,4.98,1.478,7.314c0.311,1.245,0.545,2.568,0.856,3.813 c0.389,1.945,0.778,3.735,1.245,5.525c0.389,1.789,0.778,3.501,1.167,5.058c0.233,1.089,0.467,2.1,0.778,3.112 c0.545,2.023,1.012,3.89,1.478,5.68c0,0.156,0.078,0.234,0.078,0.312c0.233,0.623,0.389,1.245,0.545,1.867 c0.311,1.089,0.545,2.023,0.856,2.957c0.856,2.801,1.634,4.98,2.412,6.613C231.866,358.939,230.232,358.472,228.598,358.472z"/> <path style="opacity:0.1;fill:#040000;" d="M196.853,185.74H60.846c0.467-2.801,0.856-5.758,1.167-8.792 c-0.078-0.078-0.233-0.156-0.311-0.311c0.078,0,0.078,0,0.156,0h133.984c0.078,0,0.078,0,0.156,0 c-0.078,0.155-0.234,0.233-0.311,0.311C195.997,179.982,196.386,182.939,196.853,185.74z"/> <path style="fill:#E3B967;" d="M249.14,470.437H8.559l0.467-4.98l6.458-70.338l1.012-11.204v-0.156l0.311-2.957 c0.545,0.856,1.089,1.634,1.712,2.334c1.867,2.101,4.124,3.268,6.536,3.268h6.38l0.467-5.602c0.545,0.856,1.167,1.634,1.79,2.334 c1.867,2.101,4.124,3.268,6.458,3.268h3.579l0.545-5.602c0.545,0.856,1.089,1.634,1.712,2.334 c1.867,2.101,4.124,3.268,6.536,3.268h6.38l0.545-5.602c0.544,0.856,1.089,1.634,1.712,2.334 c1.867,2.101,4.124,3.268,6.536,3.268h122.313c2.412,0,4.669-1.167,6.536-3.268c0.622-0.7,1.167-1.478,1.711-2.334l0.545,5.602 h6.38c2.412,0,4.668-1.167,6.536-3.268c0.623-0.7,1.167-1.478,1.712-2.334l0.545,5.602h3.579c2.335,0,4.591-1.167,6.458-3.268 c0.623-0.7,1.245-1.478,1.79-2.334l0.467,5.602h6.38c2.412,0,4.669-1.167,6.536-3.268c0.623-0.7,1.167-1.478,1.712-2.334 l0.312,2.957v0.156l1.012,11.048l6.458,70.494L249.14,470.437z"/> <path style="fill:#C99557;" d="M257.698,499.07c0,7.158-4.124,12.916-9.181,12.916H9.181C4.124,511.986,0,506.228,0,499.07 l0.233-1.867l2.335-19.452c0-2.179,0.389-4.28,1.089-6.069c0.312-0.7,0.623-1.4,1.012-2.101c0.389-0.622,0.778-1.167,1.245-1.712 c0.311-0.389,0.7-0.778,1.089-1.089c0.078-0.156,0.234-0.233,0.389-0.311c0.467-0.389,1.012-0.778,1.634-1.012 c0.856-0.389,1.79-0.623,2.724-0.623h234.2c0.934,0,1.867,0.234,2.723,0.623c0.545,0.233,1.012,0.545,1.478,0.934 c0.234,0.078,0.389,0.233,0.545,0.389c0.389,0.311,0.778,0.7,1.089,1.089c0.467,0.545,0.856,1.089,1.245,1.712 c0.155,0.311,0.311,0.545,0.467,0.856c0.155,0.389,0.389,0.778,0.544,1.245c0.701,1.789,1.089,3.89,1.089,6.069L257.698,499.07z"/> <path style="opacity:0.1;fill:#040000;" d="M207.201,233.902H50.653c-0.078,0-0.156,0-0.156,0 c1.011-6.302,1.789-11.126,2.179-13.616c2.178,2.723,5.446,4.591,9.181,4.591h133.984c3.735,0,7.003-1.868,9.181-4.591 C205.411,222.776,206.19,227.6,207.201,233.902z"/> <path style="opacity:0.1;fill:#040000;" d="M242.215,394.964c-2.879,1.556-6.225,2.568-9.804,2.568H24.743 c-3.346,0-6.458-0.934-9.259-2.412l1.012-11.204v-0.156l0.311-2.957c0.545,0.856,1.089,1.634,1.712,2.334 c1.867,2.101,4.124,3.268,6.536,3.268h6.38l0.467-5.602c0.545,0.856,1.167,1.634,1.79,2.334c1.867,2.101,4.124,3.268,6.458,3.268 h3.579l0.545-5.602c0.545,0.856,1.089,1.634,1.712,2.334c1.867,2.101,4.124,3.268,6.536,3.268h6.38l0.545-5.602 c0.544,0.856,1.089,1.634,1.712,2.334c1.867,2.101,4.124,3.268,6.536,3.268h122.313c2.412,0,4.669-1.167,6.536-3.268 c0.622-0.7,1.167-1.478,1.711-2.334l0.545,5.602h6.38c2.412,0,4.668-1.167,6.536-3.268c0.623-0.7,1.167-1.478,1.712-2.334 l0.545,5.602h3.579c2.335,0,4.591-1.167,6.458-3.268c0.623-0.7,1.245-1.478,1.79-2.334l0.467,5.602h6.38 c2.412,0,4.669-1.167,6.536-3.268c0.623-0.7,1.167-1.478,1.712-2.334l0.312,2.957v0.156L242.215,394.964z"/> <path style="fill:#C99557;" d="M245.793,371.544c0,1.167-0.077,2.334-0.311,3.424c0,0.156-0.078,0.311-0.078,0.467 c-0.078,0.234-0.078,0.389-0.155,0.545c-0.078,0.233-0.078,0.467-0.156,0.623c-0.156,0.544-0.312,1.089-0.545,1.634 c0,0-0.078,0.078-0.078,0.156c-0.156,0.389-0.311,0.856-0.545,1.245c-0.622,1.556-1.556,2.957-2.723,4.28 c-0.312,0.389-0.778,0.856-1.167,1.245c-0.856,0.778-1.789,1.556-2.801,2.256c-2.957,1.945-6.536,3.113-10.348,3.113H30.811 c-3.812,0-7.391-1.167-10.348-3.113c-1.011-0.7-1.945-1.478-2.801-2.256c-0.389-0.389-0.856-0.856-1.167-1.245 c-1.478-1.712-2.646-3.579-3.346-5.68c-0.234-0.545-0.389-1.089-0.545-1.634c-0.467-1.556-0.701-3.268-0.701-5.058 c0-8.092,5.213-15.017,12.45-17.662c0.389-0.155,0.778-0.311,1.167-0.389c0.389-0.078,0.778-0.156,1.167-0.311v-0.078h0.078 c1.323-0.311,2.645-0.467,4.046-0.467h196.075c1.4,0,2.724,0.156,4.046,0.467h0.078v0.078c0.389,0.155,0.778,0.233,1.167,0.311 c0.389,0.156,0.778,0.234,1.167,0.389C240.58,356.527,245.793,363.452,245.793,371.544z"/> </g> <g style="opacity:0.1;"> <path style="fill:#040000;" d="M127.626,34.716c0.248,0,0.482-0.048,0.718-0.089c-0.246-0.029-0.475-0.105-0.718-0.145V34.716z"/> <path style="fill:#040000;" d="M128.849,162.641v13.978v2.256h-1.239v6.847v15.872h1.239h1.251h65.747 c1.4,0,2.801,0.312,4.046,0.778c-1.012-4.435-2.101-10.193-3.035-16.651c-0.467-2.801-0.856-5.758-1.167-8.792 c0.078-0.078,0.234-0.156,0.311-0.311c1.712-1.478,2.801-3.501,2.801-5.835c0-2.957-1.712-5.447-4.046-6.847 c-0.404-0.253-0.836-0.426-1.262-0.618c0.423,0.184,0.855,0.351,1.25,0.589c-0.038-1.249-0.068-2.497-0.068-3.728 c0-43.851,30.395-58.468,36.485-76.891h-20.86l-15.683-15.683l-6.43,6.43l-11.398,11.399l11.447-11.598 c-5.344-23.057-23.496-41.114-46.525-46.409c0.038-0.053,0.09-0.093,0.128-0.147c1.968-2.815,3.142-6.225,3.142-9.92 c0-8.749-6.495-15.913-14.912-17.111V0c-0.419,0-0.811,0.095-1.223,0.123v34.44c-0.171,0.012-0.339,0.034-0.505,0.063 c0.173,0.021,0.33,0.086,0.505,0.102v34.515l-1.223-1.639v3.279l-7.954,10.662l9.177-12.134v93.202V162.641z"/> <path style="fill:#040000;" d="M255.124,477.765c0-2.179-0.389-4.279-1.089-6.069c-1.129-2.935-3.05-5.178-5.349-6.209 l-6.473-70.542l-1.024-11.159c2.842-3.308,4.643-7.528,4.643-12.205c0-8.144-5.242-15.063-12.497-17.717 c-0.76-0.278-1.557-0.472-2.353-0.663c-7.615-24.248-18.787-89.204-23.752-119.276c-1.046-6.337-1.819-11.134-2.222-13.649 c1.514-1.962,2.453-4.387,2.453-7.043c0-4.96-3.166-9.185-7.565-10.842c-1.266-0.477-2.621-0.773-4.049-0.773h-65.775h-1.223 v23.229v9.077v118.733v5.776v28.008v4.062v7.041v67.303v5.604V512h1.251h118.41c5.058,0,9.181-5.758,9.181-12.916 L255.124,477.765z"/> </g> </g> </g> </g>
</svg>